<svg height='300px' width='300px' fill="#000000" xmlns="http://www.w3.org/2000/svg" xmlns:xlink="http://www.w3.org/1999/xlink" version="1.1" x="0px" y="0px" viewBox="0 0 100 100" enable-background="new 0 0 100 100" xml:space="preserve">
    <g>
        <path d="M52.165,35.572c-0.275,0-0.516,0.096-0.723,0.289c-0.193,0.206-0.289,0.447-0.289,0.723c0,0.275,0.096,0.513,0.289,0.712   c0.206,0.2,0.447,0.299,0.723,0.299s0.513-0.1,0.712-0.299c0.2-0.2,0.299-0.437,0.299-0.712c0-0.275-0.1-0.516-0.299-0.723   C52.677,35.668,52.44,35.572,52.165,35.572z"></path>
        <path d="M52.506,82.737c-0.281,0.051-0.467,0.32-0.416,0.6l0.561,3.088h-2.945l0.607-5.39h2.337c0.154,0,0.299-0.068,0.397-0.187   c0.098-0.118,0.138-0.274,0.11-0.425l-0.816-4.358c-0.052-0.28-0.322-0.465-0.602-0.412c-0.28,0.052-0.465,0.322-0.412,0.602   l0.701,3.746h-2.17c-0.004,0-0.009,0-0.014,0h-1.03l0.364-4.199c0.025-0.284-0.186-0.534-0.47-0.559   c-0.284-0.026-0.534,0.186-0.559,0.47l-0.413,4.76c-0.013,0.144,0.036,0.287,0.134,0.393c0.098,0.107,0.236,0.167,0.381,0.167   h1.023l-0.658,5.848c-0.016,0.146,0.03,0.292,0.128,0.402c0.098,0.109,0.238,0.172,0.385,0.172h4.141   c0.153,0,0.298-0.068,0.396-0.185c0.098-0.118,0.139-0.273,0.112-0.423l-0.671-3.697C53.055,82.872,52.785,82.685,52.506,82.737z"></path>
        <path d="M37.433,72.567c0.055,0.144,0.171,0.255,0.317,0.304l2.261,0.764c0.054,0.018,0.11,0.027,0.165,0.027   c0.082,0,0.163-0.019,0.237-0.058c0.124-0.065,0.217-0.177,0.257-0.311l1.002-3.356c0.082-0.273-0.074-0.561-0.347-0.642   c-0.273-0.082-0.561,0.074-0.642,0.347l-0.849,2.843l-1.17-0.395c0.235-0.437,0.464-0.887,0.682-1.341   c0.002-0.004,0.004-0.009,0.007-0.013c0.336-0.696,0.659-1.424,0.96-2.166c0.107-0.264-0.02-0.565-0.284-0.673   c-0.264-0.107-0.565,0.02-0.672,0.284c-0.236,0.58-0.485,1.152-0.743,1.706l-1.489-0.484c-0.271-0.087-0.562,0.06-0.651,0.331   c-0.088,0.271,0.06,0.562,0.331,0.651l1.354,0.44c-0.224,0.445-0.456,0.881-0.694,1.304C37.39,72.263,37.378,72.423,37.433,72.567z   "></path>
        <path d="M39.024,82.261c-0.281-0.049-0.548,0.142-0.595,0.422c-0.337,1.985-0.497,3.853-0.475,5.562   c-0.659-0.086-1.3-0.313-1.916-0.677c0.225-0.821,0.41-1.608,0.552-2.344c0,0,0-0.001,0-0.001c0.227-1.165,0.353-2.243,0.376-3.205   c0.007-0.285-0.219-0.522-0.504-0.528c-0.288-0.012-0.522,0.219-0.528,0.504c-0.017,0.73-0.099,1.537-0.244,2.404l-1.493-0.631   c0.631-1.519,1.05-3.056,1.247-4.575c0.037-0.283-0.163-0.542-0.445-0.579c-0.281-0.035-0.542,0.163-0.578,0.445   c-0.205,1.581-0.668,3.186-1.374,4.771c-0.056,0.127-0.06,0.271-0.009,0.4c0.051,0.129,0.152,0.232,0.279,0.286l2.178,0.92   c-0.147,0.701-0.332,1.446-0.553,2.221c-0.061,0.215,0.023,0.444,0.207,0.569c1.043,0.706,2.162,1.073,3.328,1.09   c0.003,0,0.005,0,0.008,0c0.139,0,0.272-0.056,0.369-0.155c0.099-0.101,0.152-0.239,0.147-0.38   c-0.067-1.791,0.084-3.785,0.447-5.924C39.494,82.575,39.305,82.308,39.024,82.261z"></path>
        <path d="M58.156,74.65l-0.681-3.986c-0.048-0.281-0.314-0.469-0.596-0.422c-0.281,0.048-0.47,0.315-0.422,0.596l0.595,3.48   l-2.451,0.433v-2.227c0-0.005,0-0.01,0-0.015v-1.613c0-0.285-0.231-0.516-0.516-0.516s-0.516,0.231-0.516,0.516v1.036l-3.016-0.379   l0.859-3.036c0.078-0.274-0.082-0.56-0.356-0.637c-0.275-0.078-0.56,0.082-0.637,0.356l-1.022,3.614   c-0.041,0.145-0.017,0.3,0.066,0.426c0.083,0.125,0.217,0.208,0.366,0.227l3.74,0.47v2.394c0,0.153,0.068,0.297,0.185,0.396   c0.094,0.079,0.211,0.121,0.332,0.121c0.03,0,0.06-0.003,0.09-0.008l3.562-0.63C58.017,75.196,58.204,74.93,58.156,74.65z"></path>
        <path d="M40.427,76.905c-0.279-0.058-0.553,0.12-0.611,0.399l-0.526,2.51c-0.587-0.129-1.154-0.324-1.694-0.583l2.092-4.644   c0.117-0.26,0.001-0.566-0.259-0.683c-0.26-0.117-0.566-0.001-0.683,0.259l-2.292,5.09c-0.11,0.245-0.014,0.533,0.22,0.663   c0.914,0.507,1.902,0.847,2.938,1.009c0.027,0.004,0.054,0.006,0.08,0.006c0.24,0,0.454-0.168,0.505-0.41l0.63-3.005   C40.885,77.237,40.706,76.964,40.427,76.905z"></path>
        <path d="M68.127,88.141l-2.385-5.527l0.904-0.406c0.127-0.057,0.226-0.163,0.273-0.294c0.048-0.131,0.041-0.275-0.02-0.401   l-3.032-6.301l0.143-0.046c0.132-0.043,0.242-0.137,0.304-0.262c0.062-0.125,0.071-0.269,0.025-0.401l-0.811-2.316   c0.119-0.042,0.219-0.126,0.281-0.238c0.069-0.125,0.083-0.272,0.039-0.408l-0.91-2.817l0.146-0.028   c0.137-0.027,0.257-0.107,0.334-0.224c0.076-0.117,0.102-0.259,0.072-0.396l-1.291-5.77l0.987-3.101l0.544-0.089   c0.271-0.044,0.461-0.293,0.43-0.567l-0.391-3.516h0.332c0.262,0,0.482-0.196,0.513-0.455l0.399-3.356l0.984-0.172   c0.281-0.049,0.469-0.316,0.42-0.596l-0.628-3.64c0.156-0.092,0.253-0.26,0.253-0.445c-0.002-1.9-0.226-3.723-0.667-5.416   c-0.006-0.022-0.013-0.044-0.022-0.065l-1.11-2.715c-0.003-0.008-0.006-0.016-0.01-0.023l-1.107-2.694   c-0.003-0.007-0.005-0.013-0.008-0.02l-1.433-3.5l0.921-2.241c0.038-0.093,0.048-0.195,0.029-0.294L61.396,23   c-0.009-0.048-0.026-0.095-0.048-0.139l-4.522-8.746c-0.062-0.119-0.167-0.209-0.294-0.252l-5.388-1.817   c-0.004-0.001-0.008-0.002-0.011-0.004c0,0,0,0-0.001,0c-0.001,0-0.002-0.001-0.002-0.001c0,0-0.001,0-0.002-0.001   c-0.001-0.001-0.001,0-0.002-0.001l0,0c-0.001,0-0.002,0-0.002-0.001c-0.001,0-0.003-0.001-0.004-0.001c0,0,0,0,0,0   c-0.001,0-0.002-0.001-0.004-0.001c-0.001,0-0.002,0-0.002-0.001c-0.001,0-0.001,0-0.002,0c-0.001,0-0.001,0-0.002-0.001   c-0.001,0-0.001,0-0.001,0c-0.052-0.014-0.107-0.019-0.162-0.016c-0.729,0.03-1.514,0.373-2.337,1.02   c-1.295-0.401-2.815-0.473-4.536-0.213c-0.016,0.002-0.033,0.004-0.049,0.008c-0.765,0.146-1.371,0.622-1.802,1.415   c-0.089,0.163-0.083,0.361,0.015,0.519l5.213,8.404l1.451,4.393l-5.624,2.287c-0.043,0.016-0.083,0.038-0.12,0.065l-6.419,4.533   l-1.832,1.18c-0.001,0.001-0.002,0.001-0.003,0.002l-1.852,1.197c-0.016,0.01-0.032,0.022-0.047,0.034c0,0,0,0-0.001,0.001   c-0.08,0.066-0.141,0.156-0.17,0.262l-2.053,7.108c-0.041,0.142-0.019,0.294,0.06,0.419c0.079,0.125,0.207,0.21,0.353,0.234   l0.528,0.087l-2.187,0.436c-0.242,0.048-0.415,0.26-0.415,0.506v1.731l-1.189,0.38c-0.173,0.055-0.304,0.197-0.346,0.374   c-0.042,0.177,0.013,0.362,0.143,0.489l2.499,2.427c0.077,0.075,0.175,0.124,0.281,0.14l5.318,0.816   c0.102,0.016,0.206,0.001,0.299-0.044l4.86-2.297c0.072,0.012,0.146,0.02,0.22,0.023l1.843,1.032l-2.282,3.323   c-0.094,0.137-0.116,0.311-0.06,0.467c0.056,0.156,0.184,0.276,0.344,0.322l0.226,0.065c-0.579,1.502-1.417,2.92-2.495,4.221   c-0.109,0.132-0.146,0.31-0.098,0.475c0.048,0.165,0.175,0.295,0.338,0.347l0.082,0.026l-3.44,7.772l-2.245,3.731   c-0.081,0.134-0.096,0.298-0.042,0.444c0.054,0.147,0.172,0.261,0.32,0.311l0.758,0.255l-1.875,3.298   c-0.015,0.026-0.029,0.054-0.04,0.083l-0.599,1.601c-1.044,2.813-1.541,5.639-1.478,8.4c0.007,0.285,0.238,0.518,0.528,0.504   c0.285-0.006,0.511-0.243,0.504-0.528c-0.06-2.63,0.415-5.328,1.413-8.016l0.419-1.12l2.482,0.908   c0.133,0.049,0.28,0.041,0.406-0.022c0.127-0.063,0.222-0.175,0.264-0.31l0.857-2.757c0.085-0.272-0.067-0.562-0.34-0.646   c-0.272-0.083-0.562,0.068-0.646,0.34l-0.696,2.239l-1.881-0.688l1.678-2.952l0.96,0.32c0.271,0.09,0.563-0.056,0.653-0.326   c0.09-0.271-0.056-0.563-0.327-0.653l-1.363-0.454c0,0,0,0,0,0l-0.742-0.249l1.93-3.208c0.011-0.019,0.021-0.038,0.03-0.057   l3.499-7.905l1.697,0.537c0.272,0.086,0.562-0.065,0.648-0.337c0.086-0.272-0.065-0.562-0.336-0.648l-2.054-0.65   c0.945-1.247,1.691-2.588,2.226-4l0.966,0.277c-0.353,0.778-0.749,1.547-1.182,2.294c-0.075,0.13-0.09,0.286-0.041,0.427   c0.049,0.142,0.157,0.255,0.296,0.311c0.458,0.183,0.921,0.34,1.381,0.467c-0.174,0.881-0.56,1.614-1.174,2.231   c-0.132,0.133-0.182,0.326-0.13,0.506c0.051,0.18,0.196,0.318,0.378,0.361l0.151,0.036c-0.723,1.126-1.28,2.268-1.662,3.407   c-0.527-0.095-1.015-0.237-1.46-0.423c0.508-0.743,0.964-1.625,1.36-2.631c0.104-0.265-0.026-0.565-0.291-0.669   c-0.266-0.104-0.565,0.026-0.669,0.291c-0.454,1.155-0.988,2.125-1.587,2.884c-0.094,0.119-0.131,0.274-0.101,0.422   c0.03,0.149,0.124,0.277,0.257,0.35c0.799,0.439,1.736,0.73,2.785,0.865c0.251,0.031,0.489-0.123,0.561-0.365   c0.383-1.291,1.014-2.594,1.878-3.879l1.093,0.258c-0.046,0.097-0.093,0.193-0.14,0.288c-0.185,0.375-0.38,0.749-0.578,1.111   c-0.075,0.137-0.084,0.3-0.025,0.445c0.059,0.144,0.181,0.254,0.331,0.298l0.915,0.271c-0.129,0.537-0.281,1.054-0.456,1.546   l-1.71-0.524c-0.273-0.083-0.561,0.07-0.645,0.342c-0.083,0.273,0.07,0.561,0.343,0.645l1.628,0.499   c-0.212,0.474-0.45,0.926-0.709,1.351c-0.087,0.142-0.1,0.318-0.035,0.472c0.065,0.154,0.201,0.266,0.364,0.302l2.567,0.565   c-0.149,0.843-0.294,1.699-0.433,2.561c-0.232,1.765-0.273,3.468-0.122,5.071c-0.024-0.008-0.049-0.015-0.075-0.019l-0.543-0.097   c-0.004-0.001-0.007-0.001-0.011-0.002l-2.036-0.359c0.237-0.666,0.382-1.323,0.433-1.962c0.307,0.01,0.62-0.003,0.935-0.038   c0.283-0.031,0.488-0.287,0.456-0.57c-0.032-0.283-0.285-0.488-0.57-0.456c-0.429,0.048-0.849,0.046-1.249-0.004c0,0,0,0-0.001,0   c-0.368-0.047-0.728-0.137-1.076-0.269c0.438-0.885,0.74-1.779,0.899-2.664c0.05-0.281-0.136-0.549-0.417-0.599   c-0.279-0.049-0.549,0.136-0.599,0.417c-0.169,0.941-0.521,1.898-1.048,2.846c-0.068,0.123-0.083,0.268-0.042,0.402   c0.041,0.134,0.135,0.246,0.261,0.309c0.456,0.23,0.934,0.399,1.426,0.504c-0.053,0.731-0.252,1.495-0.593,2.278   c-0.063,0.145-0.056,0.311,0.018,0.451c0.075,0.139,0.209,0.237,0.365,0.264l2.644,0.466l0.081,0.021   c-0.229,1.778-0.44,3.615-0.63,5.472c-0.053,0.567-0.091,1.135-0.115,1.688c-0.032,0.736-0.039,1.467-0.02,2.183l-2.688-0.636   c0.587-1.572,0.917-3.25,0.983-4.995c0.011-0.285-0.211-0.525-0.496-0.535c-0.281-0.01-0.525,0.211-0.535,0.496   c-0.069,1.832-0.449,3.581-1.127,5.2c-0.059,0.14-0.053,0.299,0.016,0.434c0.069,0.135,0.194,0.233,0.341,0.268l3.554,0.841   c0.023,0.365,0.053,0.728,0.089,1.084c0.027,0.266,0.251,0.464,0.513,0.464c0.018,0,0.035-0.001,0.053-0.003   c0.284-0.029,0.49-0.283,0.461-0.566c-0.047-0.46-0.082-0.933-0.106-1.407c0-0.008,0-0.016-0.001-0.023   c-0.044-0.895-0.045-1.823-0.005-2.759c0.023-0.536,0.061-1.087,0.111-1.632c0.188-1.844,0.399-3.673,0.627-5.443h0.295   c0.148,0,0.289-0.064,0.387-0.175c0.098-0.111,0.144-0.259,0.125-0.406c-0.212-1.687-0.193-3.505,0.054-5.388   c0.162-1.006,0.335-2.019,0.514-3.013c0.001-0.002,0.001-0.005,0.001-0.007c1.128-6.263,2.558-12.022,4.251-17.117   c0.228-0.689,0.467-1.38,0.708-2.054c0.049-0.138,0.038-0.291-0.032-0.42c-0.07-0.129-0.191-0.222-0.334-0.256l-0.566-0.135   l11.509-10.931l0.816,1.995c0.387,1.497,0.596,3.102,0.623,4.778l-1.25,0.512c0.128-1.277,0.184-2.249,0.169-2.955   c-0.017-0.849-0.043-1.428-0.08-1.77c-0.037-0.335-0.1-0.734-0.187-1.187c-0.054-0.28-0.326-0.463-0.605-0.409   c-0.28,0.054-0.463,0.325-0.409,0.605c0.082,0.426,0.141,0.798,0.174,1.104c0.033,0.307,0.058,0.872,0.075,1.68   c0.017,0.799-0.069,2.037-0.255,3.679c-0.021,0.181,0.056,0.359,0.201,0.469c0.1,0.076,0.225,0.111,0.343,0.104v1.232l-1.741,0.317   c0.204-2.149,0.3-4.331,0.285-6.497c-0.002-0.284-0.233-0.513-0.516-0.513c-0.001,0-0.002,0-0.003,0   c-0.285,0.002-0.515,0.235-0.513,0.52c0.016,2.358-0.101,4.736-0.348,7.067c-0.017,0.162,0.043,0.322,0.162,0.433   c0.119,0.111,0.284,0.158,0.444,0.13l2.84-0.516c0.245-0.045,0.424-0.258,0.424-0.508v-2.054l0.597-0.244l0.5,2.901l-0.855,0.149   c-0.001,0-0.001,0-0.002,0l-1.351,0.237c-0.281,0.049-0.469,0.317-0.419,0.598c0.049,0.281,0.318,0.469,0.598,0.419l0.669-0.117   l-0.308,2.593h-2.02c-0.285,0-0.516,0.231-0.516,0.516s0.231,0.516,0.516,0.516h1.108l0.349,3.142l-0.373,0.06h0l-1.104,0.177   v-1.748c0-0.285-0.231-0.516-0.516-0.516s-0.516,0.231-0.516,0.516v2.354c0,0.151,0.066,0.295,0.181,0.393   c0.115,0.098,0.267,0.14,0.417,0.117l0.875-0.141l-0.774,2.434l-1.575,0.25c-0.282,0.045-0.474,0.309-0.429,0.591   c0.044,0.282,0.308,0.475,0.591,0.429l1.411-0.223l1.1,4.915l-0.196,0.038c-0.001,0-0.002,0-0.003,0.001l-0.771,0.152v-1.561   c0-0.285-0.231-0.516-0.516-0.516s-0.516,0.231-0.516,0.516v2.189c0,0.154,0.069,0.301,0.188,0.399   c0.119,0.098,0.276,0.137,0.428,0.108l0.939-0.185l0.78,2.413l-1.178,0.312v-1.601c0-0.285-0.231-0.516-0.516-0.516   s-0.516,0.231-0.516,0.516v2.272c0,0.16,0.074,0.311,0.201,0.409c0.127,0.098,0.292,0.131,0.447,0.09l1.392-0.368l0.663,1.894   l-0.203,0.065c-0.001,0-0.001,0-0.002,0.001l-2.388,0.763c-0.271,0.087-0.421,0.377-0.334,0.649   c0.087,0.272,0.377,0.421,0.649,0.334l1.962-0.627l2.864,5.953l-0.885,0.397c-0.001,0-0.001,0.001-0.002,0.001l-0.786,0.353   l-0.762-3.469c-0.061-0.278-0.335-0.456-0.615-0.393c-0.279,0.061-0.455,0.337-0.393,0.615l0.898,4.089   c0.033,0.152,0.133,0.281,0.272,0.35c0.139,0.07,0.302,0.073,0.444,0.01l0.89-0.4l2.379,5.513c0.113,0.262,0.417,0.383,0.678,0.269   C68.119,88.706,68.24,88.403,68.127,88.141z M56.004,14.775l4.393,8.494l1.195,6.177l-0.464,1.13l-1.041-2.542   c-0.045-0.109-0.125-0.199-0.228-0.256l-1.367-0.756l-1.343-4.375c-0.01-0.034-0.024-0.067-0.042-0.098l-5.035-9.099L56.004,14.775   z M50.694,13.089l5.485,9.912l1.183,3.855h-2.553l-0.922-4.159c-0.009-0.042-0.024-0.083-0.044-0.122l-4.477-8.815   C49.846,13.399,50.291,13.175,50.694,13.089z M48.351,14.041l4.542,8.943l0.858,3.872h-0.839l-1.747-4.244   c-0.014-0.034-0.032-0.067-0.053-0.097l-6.07-8.766C46.287,13.64,47.396,13.738,48.351,14.041z M48.411,22.792   c-0.013-0.039-0.03-0.076-0.052-0.11l-5.077-8.186c0.184-0.263,0.396-0.447,0.637-0.554l6.313,9.116l1.564,3.799H50.74   c-0.067,0-0.133,0.013-0.196,0.039l-0.686,0.281L48.411,22.792z M49.735,28.342c0.001,0,0.002-0.001,0.003-0.001l1.104-0.452h7.086   l1.273,0.705l1.449,3.538c0,0,0,0.001,0,0.001l1.394,3.404l-5.722,6.228l-8.111,7.524c-0.018,0.017-0.035,0.034-0.05,0.053   l-0.427-0.089l-5.899-13.337l8.52-5.098l5.982-1.623c0.275-0.075,0.438-0.358,0.363-0.633c-0.075-0.275-0.359-0.438-0.633-0.363   l-5.984,1.624H46.1L49.735,28.342z M42.627,46.422c-0.351-0.418-0.806-0.638-1.314-0.638c-0.087,0-0.172,0.007-0.255,0.02   l-4.895-1.108l1.632-6.363l1.071-0.642l4.849,10.712l-0.643-0.136c0.022-0.126,0.034-0.256,0.036-0.39   C43.118,47.323,42.958,46.836,42.627,46.422z M39.87,46.593c-0.173,0.254-0.288,0.537-0.344,0.847   c-0.002-0.032-0.006-0.065-0.014-0.097c-0.058-0.235-0.269-0.393-0.501-0.393c-0.041,0-0.083,0.005-0.124,0.015l-0.029,0.007   l-0.372-0.693L39.87,46.593z M39.757,37.155l1.185-0.707l5.546,12.541l-1.52-0.321L39.757,37.155z M43.624,30.853h4.659   l-6.927,4.145l-2.977-0.44L43.624,30.853z M37.144,35.419l2.811,0.416l-0.695,0.414l-0.166-0.028   c-0.005-0.001-0.01-0.002-0.015-0.003l-2.503-0.434L37.144,35.419z M35.295,36.61l2.61,0.452l-0.656,0.393l-2.543-0.464   L35.295,36.61z M33.697,37.857l3.012,0.55l-1.562,6.087l-0.456-0.076c-0.001,0-0.002,0-0.003,0l-2.756-0.453L33.697,37.857z    M30.151,47.735v-1.394l4.464-0.89l0.816,0.137l1.985,0.449l-4.104,0.866L31.3,46.301c-0.273-0.082-0.561,0.073-0.643,0.346   c-0.082,0.273,0.073,0.561,0.346,0.643l2.137,0.64c0.083,0.025,0.17,0.028,0.255,0.011l4.32-0.911l0.109,0.203l-4.986,1.27   l-2.69-0.722C30.15,47.766,30.151,47.75,30.151,47.735z M35.824,51.228l-4.999-0.767l-1.762-1.711l0.335-0.107   c0.023,0.01,0.046,0.018,0.071,0.024l3.232,0.867c0.085,0.023,0.175,0.024,0.261,0.002l5.755-1.466l0.416-0.103   c0.176-0.044,0.309-0.173,0.364-0.333c-0.008,0.074-0.012,0.149-0.013,0.226c-0.009,0.548,0.143,1.026,0.453,1.422L35.824,51.228z    M41.949,48.416c0,0.001-0.001,0.001-0.001,0.002c-0.039,0.077-0.089,0.15-0.152,0.223c-0.192,0.227-0.362,0.271-0.477,0.281   h-0.058c-0.063,0-0.121-0.009-0.176-0.026c-0.002-0.001-0.004-0.001-0.006-0.002c-0.116-0.036-0.222-0.116-0.323-0.241   c-0.166-0.208-0.244-0.462-0.239-0.776c0.005-0.316,0.095-0.576,0.271-0.791c0.116-0.138,0.239-0.22,0.374-0.252   c0.003-0.001,0.006-0.001,0.01-0.002c0.043-0.011,0.09-0.016,0.14-0.016c0.205,0,0.367,0.083,0.516,0.26   c0.172,0.215,0.253,0.472,0.248,0.784C42.073,48.073,42.031,48.254,41.949,48.416z M51.303,52.725   c-1.661,4.999-3.07,10.627-4.192,16.735l-1.842-0.405c0.224-0.418,0.428-0.855,0.611-1.307c0.275-0.68,0.507-1.41,0.693-2.176   l0.335,0.098c0.135,0.04,0.279,0.022,0.401-0.047s0.21-0.185,0.245-0.321l0.733-2.881c0.07-0.276-0.097-0.557-0.373-0.628   c-0.275-0.071-0.557,0.097-0.628,0.373l-0.601,2.362l-0.343-0.1c-0.003-0.001-0.006-0.002-0.009-0.003l-0.766-0.227   c0.101-0.194,0.201-0.391,0.298-0.588c0.598-1.218,1.135-2.522,1.595-3.877c0.092-0.27-0.053-0.563-0.323-0.655   c-0.27-0.092-0.563,0.053-0.655,0.323c-0.292,0.86-0.616,1.699-0.967,2.507l-1.637-0.386c0,0-0.001,0-0.001,0l-0.06-0.014   c0.428-0.603,0.722-1.289,0.878-2.05c0.214,0.041,0.428,0.076,0.644,0.105c0.171,0.021,0.343,0.039,0.514,0.053   c0.274,0.025,0.518-0.171,0.556-0.443c0.274-1.959,0.765-3.884,1.459-5.723c0.101-0.267-0.034-0.564-0.301-0.665   c-0.266-0.101-0.565,0.034-0.665,0.301c-0.662,1.756-1.146,3.587-1.442,5.451c-0.352-0.049-0.708-0.115-1.062-0.199   c-0.005-0.001-0.01-0.002-0.015-0.003c-0.376-0.089-0.757-0.2-1.136-0.331c0.433-0.788,0.827-1.597,1.174-2.411   c0-0.001,0.001-0.002,0.001-0.002c0.394-0.932,0.737-1.897,1.021-2.869c0.08-0.274-0.077-0.56-0.351-0.64   c-0.274-0.08-0.56,0.077-0.64,0.351c-0.23,0.788-0.501,1.571-0.807,2.335l-1.554-0.446c-0.001,0-0.002,0-0.002-0.001l-0.067-0.019   l2.015-2.935l6.343,0.895c0.284,0.04,0.544-0.157,0.583-0.439s-0.157-0.544-0.439-0.583l-6.564-0.926l-1.519-0.85   c0.049-0.047,0.096-0.098,0.141-0.152c0.022-0.026,0.044-0.052,0.065-0.079l1.853,0.392c0,0,0.001,0,0.001,0l2.761,0.583   c0.001,0,0.002,0,0.003,0.001L50.9,50.97l0.927,0.221C51.648,51.698,51.473,52.212,51.303,52.725z M50.854,49.905l-1.462-0.307   l7.646-7.092c0.01-0.009,0.02-0.019,0.029-0.029l5.408-5.887l0.673,1.638L50.854,49.905z"></path>
        <path d="M61.31,81.229l-1.971,0.542h0l-0.235,0.064v-3.578c0-0.285-0.231-0.516-0.516-0.516c-0.285,0-0.516,0.231-0.516,0.516   v4.254c0,0.161,0.075,0.313,0.203,0.41c0.128,0.098,0.294,0.13,0.449,0.088l0.396-0.108l1.138,3.983l-2.093,0.687v-2.922   c0-0.285-0.231-0.516-0.516-0.516s-0.516,0.231-0.516,0.516v3.635c0,0.166,0.079,0.321,0.213,0.418   c0.089,0.065,0.195,0.098,0.303,0.098c0.054,0,0.108-0.008,0.161-0.026l3.242-1.064c0.264-0.086,0.412-0.366,0.335-0.632   l-1.271-4.45l1.469-0.404c0.275-0.075,0.436-0.36,0.361-0.635C61.87,81.315,61.586,81.153,61.31,81.229z"></path>
        <path d="M56.042,36.903c-0.215-1.507-0.669-2.849-1.348-3.992c-0.751-1.256-1.692-1.893-2.798-1.893   c-1.105,0-2.028,0.601-2.743,1.786c-0.674,1.103-1.015,2.375-1.015,3.78c0,1.397,0.268,2.592,0.796,3.55   c0.572,1.054,1.513,1.617,2.796,1.674c0.074,0.003,0.148,0.005,0.221,0.005c1.133,0,2.144-0.393,3.011-1.172   c0.941-0.862,1.305-2.118,1.082-3.735C56.042,36.904,56.042,36.904,56.042,36.903z M54.267,39.876   c-0.721,0.648-1.537,0.943-2.492,0.901c-0.908-0.04-1.541-0.411-1.935-1.137c-0.444-0.807-0.669-1.835-0.669-3.055   c0-1.212,0.291-2.303,0.865-3.244c0.524-0.867,1.133-1.289,1.861-1.289c0.727,0,1.352,0.455,1.911,1.389   c0.609,1.023,1.016,2.236,1.212,3.606C55.196,38.325,54.948,39.251,54.267,39.876z"></path>
        <path d="M57.003,47.766c-0.034-0.283-0.291-0.484-0.575-0.45c-0.283,0.034-0.485,0.292-0.45,0.575l0.713,5.865   c0.018,0.146,0.097,0.278,0.218,0.362c0.087,0.06,0.19,0.092,0.294,0.092c0.04,0,0.081-0.005,0.121-0.014l3.139-0.754   c0.138-0.033,0.256-0.121,0.327-0.244c0.071-0.123,0.088-0.269,0.048-0.405l-1.477-4.998c-0.081-0.273-0.368-0.43-0.641-0.349   c-0.273,0.081-0.43,0.368-0.349,0.641l1.323,4.476l-2.047,0.492L57.003,47.766z"></path>
        <path d="M51.95,56.715c-0.282-0.048-0.547,0.143-0.594,0.424l-1.002,5.979c-0.025,0.15,0.017,0.303,0.115,0.419   c0.098,0.116,0.242,0.183,0.394,0.183h1.73L52.007,67.1c-0.026,0.15,0.016,0.304,0.114,0.421c0.098,0.117,0.243,0.184,0.395,0.184   h3.573c0.145,0,0.284-0.061,0.382-0.169c0.098-0.108,0.146-0.251,0.132-0.396l-0.171-1.79l3.105-0.501   c0.281-0.045,0.473-0.31,0.427-0.592c-0.045-0.281-0.31-0.475-0.592-0.427l-3.038,0.49l-0.072-0.762   c-0.027-0.284-0.28-0.488-0.563-0.465c-0.284,0.027-0.492,0.279-0.465,0.563l0.124,1.311c0,0.001,0,0.001,0,0.002l0.163,1.705   h-2.391l0.512-2.953h0.701c0.153,0,0.297-0.068,0.396-0.184c0.098-0.117,0.139-0.271,0.113-0.421l-0.692-3.934   c-0.049-0.281-0.316-0.47-0.598-0.419c-0.281,0.049-0.468,0.317-0.419,0.598l0.585,3.328h-0.512c-0.006,0-0.012,0-0.018,0h-1.724   l0.901-5.377C52.421,57.028,52.232,56.762,51.95,56.715z"></path>
        <path d="M53.693,49.439c-0.285,0-0.516,0.231-0.516,0.516v6.371c0,0.152,0.067,0.296,0.183,0.394   c0.116,0.098,0.27,0.14,0.419,0.115l1.21-0.205l0.285,3.527c0.012,0.144,0.083,0.277,0.197,0.366   c0.091,0.071,0.203,0.109,0.317,0.109c0.028,0,0.057-0.002,0.086-0.007l3.139-0.527c0.137-0.023,0.26-0.101,0.339-0.215   c0.079-0.115,0.109-0.256,0.083-0.393l-0.506-2.592c-0.055-0.28-0.326-0.462-0.606-0.408c-0.28,0.055-0.462,0.326-0.408,0.606   l0.405,2.071l-2.061,0.346l-0.247-3.056l1.309-0.221c0.281-0.047,0.47-0.314,0.423-0.595c-0.047-0.281-0.312-0.472-0.595-0.423   l-1.771,0.299c-0.003,0.001-0.007,0.001-0.01,0.002l-1.157,0.196v-5.76C54.209,49.67,53.978,49.439,53.693,49.439z"></path>
    </g>
</svg>