<?xml version="1.0" standalone="no"?>
<!DOCTYPE svg PUBLIC "-//W3C//DTD SVG 20010904//EN"
 "http://www.w3.org/TR/2001/REC-SVG-20010904/DTD/svg10.dtd">
<svg version="1.0" xmlns="http://www.w3.org/2000/svg"
 width="700.000000pt" height="700.000000pt" viewBox="0 0 700.000000 700.000000"
 preserveAspectRatio="xMidYMid meet">
<metadata>
Created by potrace 1.11, written by Peter Selinger 2001-2013
</metadata>
<g transform="translate(0.000000,700.000000) scale(0.100000,-0.100000)"
fill="#000000" stroke="none">
<path d="M4399 6202 l-155 -117 -74 -215 c-40 -118 -73 -224 -73 -235 1 -44
15 -292 18 -320 2 -16 6 -73 10 -125 3 -52 8 -124 10 -160 2 -36 7 -108 10
-160 3 -52 8 -115 10 -140 2 -25 6 -94 10 -155 3 -60 8 -135 10 -165 7 -91 14
-200 20 -300 6 -104 11 -176 20 -302 3 -46 7 -117 10 -158 6 -93 14 -215 20
-297 l4 -63 -32 -1 c-18 0 -40 -2 -50 -4 -9 -2 -50 -6 -90 -10 -39 -3 -83 -8
-97 -10 -14 -2 -50 -7 -80 -10 -30 -3 -71 -8 -90 -10 -19 -3 -57 -7 -85 -10
-136 -15 -225 -25 -270 -32 -167 -22 -358 -29 -930 -33 l-220 -1 -80 -36 c-44
-20 -107 -48 -140 -63 -33 -16 -85 -39 -115 -52 -30 -14 -149 -82 -263 -153
-188 -115 -208 -130 -205 -152 3 -21 14 -29 83 -53 200 -70 339 -120 342 -124
6 -5 14 -89 28 -286 3 -36 7 -90 10 -120 6 -81 14 -186 20 -265 3 -38 7 -92
10 -120 2 -27 7 -90 10 -140 12 -178 11 -175 93 -175 42 0 52 -3 53 -17 0 -10
2 -25 4 -33 3 -15 18 -105 31 -184 3 -21 7 -47 9 -56 2 -10 7 -40 11 -67 3
-26 8 -55 9 -63 2 -8 13 -78 26 -155 23 -143 36 -176 68 -168 20 5 33 46 157
495 l68 248 51 0 c27 0 56 4 63 9 8 4 53 127 101 272 60 181 92 264 102 264
36 -2 218 -16 240 -20 13 -2 64 -6 112 -9 49 -4 107 -8 130 -11 23 -2 78 -7
122 -10 44 -4 89 -9 101 -11 21 -4 567 -325 592 -349 10 -9 113 -320 127 -385
2 -8 16 -53 30 -100 15 -47 33 -105 40 -130 68 -232 78 -260 97 -266 36 -11
44 9 82 201 3 11 9 40 15 65 5 25 12 56 15 70 2 14 24 117 49 230 40 181 52
219 102 325 64 134 93 196 190 405 37 80 84 181 105 225 21 44 54 115 74 157
20 43 52 113 72 155 31 66 123 315 320 862 34 94 41 139 25 157 -24 25 -209
448 -291 665 -182 484 -289 765 -308 815 -20 49 -20 53 -4 70 17 19 173 199
268 309 28 33 86 100 128 148 42 48 76 93 76 100 0 18 -137 194 -159 207 -10
5 -20 7 -22 5 -3 -2 -36 -9 -74 -16 -103 -17 -107 -18 -140 -24 -54 -10 -259
-47 -290 -52 -16 -2 -56 -10 -88 -17 -31 -8 -60 -10 -63 -5 -3 5 0 35 5 66 6
32 13 76 16 98 10 64 15 97 25 155 5 30 12 73 15 95 2 22 9 62 14 88 9 49 -3
77 -32 77 -7 0 -82 -53 -168 -118z m116 -34 c-3 -18 -7 -46 -10 -63 -5 -28 -9
-53 -20 -127 -2 -18 -6 -42 -9 -53 -2 -11 -9 -60 -16 -108 -8 -48 -16 -90 -20
-92 -3 -2 -29 -7 -56 -10 -27 -4 -60 -8 -74 -11 -14 -2 -48 -7 -76 -10 l-51
-6 60 177 61 176 104 80 c58 43 107 79 109 79 2 0 1 -15 -2 -32z m708 -450
c26 -35 47 -67 47 -73 -1 -5 -8 -19 -18 -30 -89 -104 -273 -316 -294 -340 -16
-16 -47 -53 -70 -82 -24 -29 -45 -52 -48 -52 -4 -1 -26 35 -131 219 -14 25
-58 100 -98 167 -39 68 -71 127 -71 131 0 5 35 15 78 22 42 8 79 14 82 15 23
5 82 16 115 21 22 3 70 12 106 19 36 8 85 17 110 20 24 3 60 10 79 15 60 14
64 12 113 -52z m-753 -91 c15 -24 131 -222 162 -277 11 -19 53 -92 94 -161 73
-126 115 -230 375 -929 28 -74 55 -144 60 -155 4 -11 20 -51 34 -90 27 -72 28
-102 10 -305 -1 -19 -6 -75 -10 -125 -3 -49 -8 -106 -10 -125 -2 -19 -6 -75
-10 -125 -3 -49 -8 -101 -10 -115 -2 -14 -7 -65 -10 -115 -3 -49 -8 -106 -10
-125 -2 -19 -6 -71 -10 -115 -12 -170 -16 -221 -22 -240 -7 -27 -36 -90 -189
-414 -30 -62 -54 -114 -54 -116 0 -1 -23 -52 -51 -111 -214 -455 -249 -532
-249 -546 0 -7 -12 -62 -25 -123 -14 -60 -28 -123 -31 -140 -15 -90 -42 -188
-44 -160 -1 17 -3 44 -5 60 -1 17 -6 80 -9 140 -4 61 -9 128 -11 150 -1 22 -6
92 -9 155 -4 63 -9 135 -11 160 -3 25 -7 92 -10 150 -3 58 -8 128 -10 155 -2
28 -6 95 -10 150 -3 55 -8 125 -10 155 -2 30 -7 105 -11 165 -4 61 -8 126 -9
145 -1 19 -6 85 -9 145 -4 61 -9 133 -11 160 -2 28 -7 95 -10 150 -4 55 -8
127 -10 160 -3 33 -7 94 -9 135 -3 41 -8 116 -11 165 -3 50 -8 119 -10 155
-10 141 -14 209 -20 305 -3 55 -8 123 -10 150 -2 28 -7 93 -10 145 -3 52 -7
122 -10 155 -11 160 -16 235 -20 295 -4 63 -13 206 -20 320 -2 30 -7 102 -10
160 -4 58 -8 123 -10 145 -2 22 -6 92 -10 155 l-7 116 33 2 c36 3 162 22 165
25 2 1 22 3 46 4 35 2 46 -1 58 -20z m913 -2037 l47 -105 -80 -220 c-45 -121
-92 -254 -107 -295 -39 -113 -38 -118 -17 120 11 126 12 146 19 235 3 50 8
104 10 120 2 17 7 73 10 125 4 52 8 106 10 120 2 14 4 45 5 70 l1 45 27 -55
c15 -30 49 -102 75 -160z m-1127 -400 c1 -14 4 -77 8 -140 4 -63 9 -133 10
-155 2 -22 7 -89 10 -150 4 -60 9 -132 11 -160 2 -27 7 -95 10 -150 3 -55 8
-127 10 -160 5 -68 13 -181 20 -305 3 -47 7 -110 10 -140 2 -30 7 -104 11
-165 3 -60 8 -113 10 -117 18 -30 -45 1 -237 116 -123 73 -290 172 -372 221
-87 51 -157 100 -171 118 -13 18 -125 181 -249 364 l-225 332 33 83 c18 46 53
138 79 205 53 137 41 127 171 138 39 4 77 8 85 10 8 2 44 7 80 10 36 3 81 8
100 10 105 14 273 34 340 40 30 3 84 9 120 14 36 5 81 8 100 7 29 -1 34 -5 36
-26z m-1066 -88 c0 -4 -24 -70 -54 -147 -213 -548 -376 -986 -447 -1201 l-83
-251 -261 0 c-182 0 -262 4 -262 11 -1 33 -22 302 -28 361 -9 84 -19 253 -19
310 0 44 9 87 36 160 20 55 75 213 123 350 47 138 99 284 113 325 l28 75 204
5 c330 8 650 9 650 2z m-945 -52 c-3 -5 -26 -67 -50 -137 -68 -199 -162 -465
-173 -493 -10 -22 -11 -20 -12 25 -1 28 -3 61 -5 75 -1 14 -5 66 -9 115 -14
182 -17 221 -21 263 l-5 42 78 36 c42 19 100 46 127 59 53 25 80 31 70 15z
m-339 -167 c0 -24 14 -200 18 -235 2 -16 -1 -28 -6 -28 -25 0 -298 104 -291
111 11 10 267 169 273 169 3 0 6 -8 6 -17z m1388 -577 c113 -167 206 -307 206
-311 0 -3 -17 -4 -37 -1 -21 3 -72 8 -113 11 -41 3 -95 8 -120 10 -25 2 -81 7
-126 10 -44 3 -89 8 -100 10 -10 2 -45 4 -76 4 -40 1 -58 5 -58 14 0 10 56
160 201 535 5 12 10 22 13 22 2 0 96 -137 210 -304z m1077 -890 c0 -11 2 -34
3 -51 2 -16 6 -84 10 -150 4 -66 9 -132 12 -147 8 -51 -5 -29 -26 45 -12 39
-34 113 -49 162 -16 50 -36 117 -46 150 -10 33 -20 66 -23 73 -2 7 23 -4 57
-24 43 -26 61 -43 62 -58z m-1915 -3 c-22 -76 -126 -454 -132 -475 -9 -42 -21
-34 -28 20 -3 26 -8 58 -11 72 -12 67 -65 389 -65 394 0 3 54 6 121 6 110 0
120 -2 115 -17z"/>
</g>
</svg>
